#!OML:ASF F:\VICON\USERDATA\INSTALL\rory3\rory3.ASF
:FULLY-SPECIFIED
:DEGREES
85
root -0.826967830611027 17.559400756942242 18.397691511889125 2.736086861348153 -5.084594574604342 -1.8799918684386543
lfemur -7.324010155748324 3.4019033368043683 -20.832655443197922
ltibia 91.90762880005222
lfoot 31.311024647146745 -18.36920192132131
ltoes 7.49343410491419
rfemur -35.386729165200855 -2.130600053935295 25.914027906393258
rtibia 19.020304302159992
rfoot -8.402178344547153 -4.9183378139590825
rtoes 1.3574889569938247
lowerback 1.0 -0.49641481662221376 0.40859055664947797
upperback 0.13904480288145776 -0.6511194590188163 2.4905664770815723
thorax -8.272775695470811 0.1639133022171262 1.1796641064486153
lowerneck -19.864134644876604 -4.193975727122857 -2.1373992031527425
upperneck 14.939750921782016 -3.6810422668552314 1.954217431419041
head 7.6644960084613425 -2.0776548980532734 0.4271411549358931
lclavicle -3.127669203824806e-14 -1.244919014356993e-14
lhumerus -48.94138829978507 -5.446990853054051 90.44601604178689
lradius 100.12250861142957
lwrist 33.62136209228454
lhand -31.699345306762226 -7.704593650231541
lfingers nan
lthumb -4.720496218769458 22.9458615188994
rclavicle -2.557347172318096e-14 -1.0729532944506534e-14
rhumerus -54.19430604449703 -0.27828358310539336 -91.0886253551221
rradius 100.0441089166643
rwrist -14.483893582907665
rhand -19.7180618414743 1.0
rfingers nan
rthumb 6.416531367381943 12.878275247418259
86
root -0.8479474835329128 17.477390722312 18.78817242434006 2.6220104531589805 -5.339184668698966 -2.1047160222433425
lfemur -8.926943037308117 4.283225858021005 -19.809030212271377
ltibia 95.97213061066819
lfoot 29.242906158974094 -18.032615017367604
ltoes 8.489220150071247
rfemur -35.00164650672466 -1.5190578841283933 26.172672541161827
rtibia 22.20413693981847
rfoot -11.700751353105545 -6.017707594082261
rtoes 1.5936588468295874
lowerback 1.0 -0.41776971403328433 0.6800904841741333
upperback 0.450459595330525 -0.4555912504064221 2.460886663642655
thorax -7.9920803348213365 0.2252159101079928 1.0370601040988507
lowerneck -21.049811245776237 -4.210571956710539 -1.9586808910369478
upperneck 14.94901419107437 -3.6849483049551752 1.8743675024439757
head 7.782225870063032 -2.118493438776701 0.37435673421737375
lclavicle -1.9284203417227573e-15 -5.138921232002407e-15
lhumerus -49.37979722386865 -5.083364629809358 90.01611073861314
lradius 97.39365070826635
lwrist 33.476425584392025
lhand -30.05215108263946 -9.150338170515123
lfingers nan
lthumb -3.123405538140781 21.55922223085097
rclavicle 3.978065128393433e-15 -3.294029356543932e-15
rhumerus -51.90417436361596 0.22127036595147587 -91.47916639464954
rradius 99.76338331178275
rwrist -14.843984004311986
rhand -20.208989792813707 1.0
rfingers nan
rthumb 5.932462650100825 11.315609158994755
87
root -0.896311965425529 17.397056154912452 18.972070296147027 2.6511703384078844 -5.3476491420353 -2.4838989442187978
lfemur -10.87731926543489 4.849421302744627 -18.462215300070767
ltibia 99.95182792135267
lfoot 27.886772410030623 -18.141380278843393
ltoes 9.221674620868217
rfemur -34.42023282856781 -0.9717408292124863 26.62184114689479
rtibia 24.58888557649425
rfoot -13.957603270864855 -8.543040962884495
rtoes 2.5758448095575
lowerback 1.0 -0.3895469588153917 0.815641349280265
upperback 0.6734045076719324 -0.2818480742065861 2.6151294343895026
thorax -7.875612441834086 0.24763195033794583 1.0982215213088575
lowerneck -22.46204296594508 -4.264171329040783 -1.9792372852067404
upperneck 14.977196447541617 -3.6966594402588844 1.8412879257021055
head 7.933175981820591 -2.168753223473762 0.35500901462772344
lclavicle -3.3703714934521987e-14 -1.760403279245571e-14
lhumerus -49.692547444658494 -4.613641323610022 89.60765662861078
lradius 94.50923424957597
lwrist 33.61907729382772
lhand -29.403354365946708 -10.438055652986673
lfingers nan
lthumb -2.497908196534107 20.293930723392144
rclavicle -2.7626471513479237e-14 -1.5560018177726442e-14
rhumerus -49.523874420349024 0.9118490573815929 -91.81044957959779
rradius 99.48502999965828
rwrist -14.36087837406487
rhand -20.997856183255998 1.0
rfingers nan
rthumb 5.181626175825725 10.158430152813999
88
root -0.959532205336951 17.312746936871857 19.03275897495236 2.7676599569138363 -5.538884702329801 -3.8140828278204952
lfemur -13.03830344751591 5.7243133084595295 -15.77151736015821
ltibia 104.09250279387396
lfoot 26.519232349742467 -19.03642936140797
ltoes 9.691171865059069
rfemur -33.69842096731941 -0.08421910871245064 28.20565935048064
rtibia 26.421153786524776
rfoot -16.16625333981064 -10.564397375812785
rtoes 3.5572000309178993
lowerback 1.0 -0.2821681091275652 1.5013800081648812
upperback 0.6936997321612539 0.07483173523113584 3.0748514427077462
thorax -8.064268718698603 0.3451868656666812 1.1015405578709347
lowerneck -23.19084919434437 -4.264750497250184 -1.8688755248768074
upperneck 14.960918075493103 -3.6456194654092853 1.6773669533536382
head 7.993665256534608 -2.2102883331339718 0.2981319389196516
lclavicle -2.358380904430955e-14 -3.1950452099193945e-14
lhumerus -50.217209550216744 -3.985669621496565 89.20153603667207
lradius 91.29838284755006
lwrist 33.885158757789156
lhand -30.706820379651116 -9.952064124055461
lfingers nan
lthumb -3.77937380220815 20.788248881195138
rclavicle -1.7404126254889966e-14 -2.9988464040463584e-14
rhumerus -47.28082650862866 1.6507424478590256 -92.10013282379956
rradius 99.29922887858245
rwrist -13.304731624263598
rhand -21.611158364325508 1.0
rfingers nan
rthumb 4.630040954120608 9.761610652684913
